<mxfile host="app.diagrams.net" agent="Mozilla/5.0 (Windows NT 10.0; Win64; x64) AppleWebKit/537.36 (KHTML, like Gecko) Chrome/129.0.0.0 Safari/537.36" version="24.7.17">
  <diagram name="Страница — 1" id="K9DpIMCQUKm6tweqTpe7">
    <mxGraphModel dx="569" dy="362" grid="1" gridSize="10" guides="1" tooltips="1" connect="1" arrows="1" fold="1" page="1" pageScale="1" pageWidth="827" pageHeight="1169" math="0" shadow="0">
      <root>
        <mxCell id="0" />
        <mxCell id="1" parent="0" />
        <mxCell id="lqApCSlY46Vw4tA-hEk7-7" value="Admin" style="shape=umlActor;verticalLabelPosition=bottom;verticalAlign=top;html=1;outlineConnect=0;" parent="1" vertex="1">
          <mxGeometry x="460" y="360" width="20" height="40" as="geometry" />
        </mxCell>
        <mxCell id="lqApCSlY46Vw4tA-hEk7-9" value="Uploader" style="shape=umlActor;verticalLabelPosition=bottom;verticalAlign=top;html=1;outlineConnect=0;" parent="1" vertex="1">
          <mxGeometry x="30" y="280" width="20" height="40" as="geometry" />
        </mxCell>
        <mxCell id="lqApCSlY46Vw4tA-hEk7-10" value="Moderator" style="shape=umlActor;verticalLabelPosition=bottom;verticalAlign=top;html=1;outlineConnect=0;" parent="1" vertex="1">
          <mxGeometry x="350" y="360" width="20" height="40" as="geometry" />
        </mxCell>
        <mxCell id="lqApCSlY46Vw4tA-hEk7-11" value="Technical&lt;div&gt;account&lt;/div&gt;" style="shape=umlActor;verticalLabelPosition=bottom;verticalAlign=top;html=1;outlineConnect=0;" parent="1" vertex="1">
          <mxGeometry x="30" y="480" width="20" height="40" as="geometry" />
        </mxCell>
        <mxCell id="lqApCSlY46Vw4tA-hEk7-13" value="download data" style="ellipse;whiteSpace=wrap;html=1;" parent="1" vertex="1">
          <mxGeometry x="339" y="475" width="75" height="50" as="geometry" />
        </mxCell>
        <mxCell id="lqApCSlY46Vw4tA-hEk7-15" value="upload data" style="ellipse;whiteSpace=wrap;html=1;" parent="1" vertex="1">
          <mxGeometry x="162.5" y="240" width="75" height="50" as="geometry" />
        </mxCell>
        <mxCell id="lqApCSlY46Vw4tA-hEk7-27" value="modify data" style="ellipse;whiteSpace=wrap;html=1;" parent="1" vertex="1">
          <mxGeometry x="540" y="355" width="75" height="50" as="geometry" />
        </mxCell>
        <mxCell id="lqApCSlY46Vw4tA-hEk7-28" value="delete data" style="ellipse;whiteSpace=wrap;html=1;" parent="1" vertex="1">
          <mxGeometry x="540" y="410" width="75" height="50" as="geometry" />
        </mxCell>
        <mxCell id="lqApCSlY46Vw4tA-hEk7-31" value="track upload process" style="ellipse;whiteSpace=wrap;html=1;" parent="1" vertex="1">
          <mxGeometry x="162.5" y="300" width="75" height="50" as="geometry" />
        </mxCell>
        <mxCell id="lqApCSlY46Vw4tA-hEk7-32" value="deanonimyze&lt;div&gt;data&lt;/div&gt;" style="ellipse;whiteSpace=wrap;html=1;" parent="1" vertex="1">
          <mxGeometry x="162.5" y="410" width="75" height="50" as="geometry" />
        </mxCell>
        <mxCell id="lqApCSlY46Vw4tA-hEk7-34" value="&lt;p style=&quot;line-height: 100%;&quot;&gt;&lt;font style=&quot;font-size: 10px;&quot;&gt;customize data visualization&lt;/font&gt;&lt;/p&gt;" style="ellipse;whiteSpace=wrap;html=1;" parent="1" vertex="1">
          <mxGeometry x="162.5" y="355" width="75" height="50" as="geometry" />
        </mxCell>
        <mxCell id="lqApCSlY46Vw4tA-hEk7-42" value="" style="endArrow=classic;html=1;rounded=0;entryX=0;entryY=0.5;entryDx=0;entryDy=0;" parent="1" target="lqApCSlY46Vw4tA-hEk7-15" edge="1">
          <mxGeometry width="50" height="50" relative="1" as="geometry">
            <mxPoint x="60" y="300" as="sourcePoint" />
            <mxPoint x="130" y="260" as="targetPoint" />
          </mxGeometry>
        </mxCell>
        <mxCell id="lqApCSlY46Vw4tA-hEk7-43" value="" style="endArrow=classic;html=1;rounded=0;entryX=0;entryY=0.5;entryDx=0;entryDy=0;" parent="1" target="lqApCSlY46Vw4tA-hEk7-31" edge="1">
          <mxGeometry width="50" height="50" relative="1" as="geometry">
            <mxPoint x="60" y="300" as="sourcePoint" />
            <mxPoint x="171" y="280" as="targetPoint" />
          </mxGeometry>
        </mxCell>
        <mxCell id="lqApCSlY46Vw4tA-hEk7-45" value="" style="endArrow=classic;html=1;rounded=0;entryX=1;entryY=0.5;entryDx=0;entryDy=0;" parent="1" target="lqApCSlY46Vw4tA-hEk7-15" edge="1">
          <mxGeometry width="50" height="50" relative="1" as="geometry">
            <mxPoint x="340" y="380" as="sourcePoint" />
            <mxPoint x="340" y="350" as="targetPoint" />
          </mxGeometry>
        </mxCell>
        <mxCell id="lqApCSlY46Vw4tA-hEk7-46" value="" style="endArrow=classic;html=1;rounded=0;entryX=1;entryY=0.5;entryDx=0;entryDy=0;" parent="1" target="lqApCSlY46Vw4tA-hEk7-34" edge="1">
          <mxGeometry width="50" height="50" relative="1" as="geometry">
            <mxPoint x="340" y="380" as="sourcePoint" />
            <mxPoint x="230" y="280" as="targetPoint" />
          </mxGeometry>
        </mxCell>
        <mxCell id="lqApCSlY46Vw4tA-hEk7-47" value="" style="endArrow=classic;html=1;rounded=0;entryX=1;entryY=0.5;entryDx=0;entryDy=0;" parent="1" edge="1">
          <mxGeometry width="50" height="50" relative="1" as="geometry">
            <mxPoint x="340" y="380" as="sourcePoint" />
            <mxPoint x="237.5" y="322.5" as="targetPoint" />
          </mxGeometry>
        </mxCell>
        <mxCell id="lqApCSlY46Vw4tA-hEk7-48" value="" style="endArrow=classic;html=1;rounded=0;entryX=1;entryY=0.5;entryDx=0;entryDy=0;" parent="1" target="lqApCSlY46Vw4tA-hEk7-32" edge="1">
          <mxGeometry width="50" height="50" relative="1" as="geometry">
            <mxPoint x="340" y="380" as="sourcePoint" />
            <mxPoint x="250" y="440" as="targetPoint" />
          </mxGeometry>
        </mxCell>
        <mxCell id="lqApCSlY46Vw4tA-hEk7-49" value="" style="endArrow=classic;html=1;rounded=0;entryX=1;entryY=0.5;entryDx=0;entryDy=0;" parent="1" target="lqApCSlY46Vw4tA-hEk7-56" edge="1">
          <mxGeometry width="50" height="50" relative="1" as="geometry">
            <mxPoint x="340" y="380" as="sourcePoint" />
            <mxPoint x="230" y="350" as="targetPoint" />
          </mxGeometry>
        </mxCell>
        <mxCell id="lqApCSlY46Vw4tA-hEk7-50" value="" style="endArrow=classic;html=1;rounded=0;entryX=0;entryY=0.5;entryDx=0;entryDy=0;" parent="1" target="lqApCSlY46Vw4tA-hEk7-56" edge="1">
          <mxGeometry width="50" height="50" relative="1" as="geometry">
            <mxPoint x="60" y="500" as="sourcePoint" />
            <mxPoint y="387.5" as="targetPoint" />
          </mxGeometry>
        </mxCell>
        <mxCell id="lqApCSlY46Vw4tA-hEk7-51" value="" style="endArrow=classic;html=1;rounded=0;" parent="1" edge="1">
          <mxGeometry width="50" height="50" relative="1" as="geometry">
            <mxPoint x="450" y="380" as="sourcePoint" />
            <mxPoint x="390" y="380" as="targetPoint" />
          </mxGeometry>
        </mxCell>
        <mxCell id="lqApCSlY46Vw4tA-hEk7-52" value="" style="endArrow=classic;html=1;rounded=0;entryX=0;entryY=0.5;entryDx=0;entryDy=0;" parent="1" target="lqApCSlY46Vw4tA-hEk7-27" edge="1">
          <mxGeometry width="50" height="50" relative="1" as="geometry">
            <mxPoint x="490" y="380" as="sourcePoint" />
            <mxPoint x="540" y="350" as="targetPoint" />
          </mxGeometry>
        </mxCell>
        <mxCell id="lqApCSlY46Vw4tA-hEk7-53" value="" style="endArrow=classic;html=1;rounded=0;entryX=0;entryY=0.5;entryDx=0;entryDy=0;" parent="1" target="lqApCSlY46Vw4tA-hEk7-28" edge="1">
          <mxGeometry width="50" height="50" relative="1" as="geometry">
            <mxPoint x="490" y="380" as="sourcePoint" />
            <mxPoint x="297" y="325" as="targetPoint" />
          </mxGeometry>
        </mxCell>
        <mxCell id="lqApCSlY46Vw4tA-hEk7-54" value="monitor system" style="ellipse;whiteSpace=wrap;html=1;" parent="1" vertex="1">
          <mxGeometry x="540" y="300" width="75" height="50" as="geometry" />
        </mxCell>
        <mxCell id="lqApCSlY46Vw4tA-hEk7-55" value="" style="endArrow=classic;html=1;rounded=0;entryX=0;entryY=0.5;entryDx=0;entryDy=0;" parent="1" target="lqApCSlY46Vw4tA-hEk7-54" edge="1">
          <mxGeometry width="50" height="50" relative="1" as="geometry">
            <mxPoint x="490" y="380" as="sourcePoint" />
            <mxPoint x="550" y="350" as="targetPoint" />
          </mxGeometry>
        </mxCell>
        <mxCell id="lqApCSlY46Vw4tA-hEk7-56" value="browse data" style="ellipse;whiteSpace=wrap;html=1;" parent="1" vertex="1">
          <mxGeometry x="162.5" y="475" width="75" height="50" as="geometry" />
        </mxCell>
        <mxCell id="lqApCSlY46Vw4tA-hEk7-58" value="preview data" style="ellipse;whiteSpace=wrap;html=1;" parent="1" vertex="1">
          <mxGeometry x="162.5" y="570" width="75" height="50" as="geometry" />
        </mxCell>
        <mxCell id="lqApCSlY46Vw4tA-hEk7-64" value="&amp;lt;&amp;lt;include&amp;gt;&amp;gt;" style="endArrow=open;endSize=12;dashed=1;html=1;rounded=0;entryX=0.5;entryY=0;entryDx=0;entryDy=0;exitX=0.5;exitY=1;exitDx=0;exitDy=0;" parent="1" source="lqApCSlY46Vw4tA-hEk7-56" target="lqApCSlY46Vw4tA-hEk7-58" edge="1">
          <mxGeometry width="160" relative="1" as="geometry">
            <mxPoint x="200" y="520" as="sourcePoint" />
            <mxPoint x="360" y="520" as="targetPoint" />
          </mxGeometry>
        </mxCell>
        <mxCell id="lqApCSlY46Vw4tA-hEk7-66" value="&lt;font style=&quot;font-size: 10px;&quot;&gt;manage system resources&lt;/font&gt;" style="ellipse;whiteSpace=wrap;html=1;" parent="1" vertex="1">
          <mxGeometry x="660" y="210" width="75" height="50" as="geometry" />
        </mxCell>
        <mxCell id="lqApCSlY46Vw4tA-hEk7-67" value="&amp;lt;&amp;lt;extend&amp;gt;&amp;gt;" style="endArrow=open;endSize=12;dashed=1;html=1;rounded=0;entryX=0;entryY=0.5;entryDx=0;entryDy=0;exitX=1;exitY=0.5;exitDx=0;exitDy=0;" parent="1" source="lqApCSlY46Vw4tA-hEk7-54" target="lqApCSlY46Vw4tA-hEk7-66" edge="1">
          <mxGeometry width="160" relative="1" as="geometry">
            <mxPoint x="360" y="400" as="sourcePoint" />
            <mxPoint x="520" y="400" as="targetPoint" />
          </mxGeometry>
        </mxCell>
        <mxCell id="o1ka_eYf63VEtD5mATq4-1" value="anonimyze data" style="ellipse;whiteSpace=wrap;html=1;" vertex="1" parent="1">
          <mxGeometry x="339" y="570" width="75" height="50" as="geometry" />
        </mxCell>
        <mxCell id="o1ka_eYf63VEtD5mATq4-3" value="&amp;lt;&amp;lt;include&amp;gt;&amp;gt;" style="endArrow=open;endSize=12;dashed=1;html=1;rounded=0;entryX=0.5;entryY=0;entryDx=0;entryDy=0;exitX=0.5;exitY=1;exitDx=0;exitDy=0;" edge="1" parent="1" source="lqApCSlY46Vw4tA-hEk7-13" target="o1ka_eYf63VEtD5mATq4-1">
          <mxGeometry width="160" relative="1" as="geometry">
            <mxPoint x="210" y="530" as="sourcePoint" />
            <mxPoint x="128" y="560" as="targetPoint" />
          </mxGeometry>
        </mxCell>
        <mxCell id="o1ka_eYf63VEtD5mATq4-5" value="&amp;lt;&amp;lt;extend&amp;gt;&amp;gt;" style="endArrow=open;endSize=12;dashed=1;html=1;rounded=0;entryX=0;entryY=0.5;entryDx=0;entryDy=0;exitX=1;exitY=0.5;exitDx=0;exitDy=0;" edge="1" parent="1" source="lqApCSlY46Vw4tA-hEk7-56" target="lqApCSlY46Vw4tA-hEk7-13">
          <mxGeometry width="160" relative="1" as="geometry">
            <mxPoint x="210" y="535" as="sourcePoint" />
            <mxPoint x="210" y="580" as="targetPoint" />
          </mxGeometry>
        </mxCell>
      </root>
    </mxGraphModel>
  </diagram>
</mxfile>
